<svg xmlns="http://www.w3.org/2000/svg" width="22.707" height="25.8" viewBox="0 0 22.707 25.8">
  <g id="Group_12724" data-name="Group 12724" transform="translate(-4784.877 106)">
    <g id="Group_12642" data-name="Group 12642" transform="translate(4784.877 -106)">
      <path id="Path_2217" data-name="Path 2217" d="M1460.12,374.4a2.629,2.629,0,0,1,1.009,2.108,3.1,3.1,0,0,1-1.228,2.043c.53.5,1.04.962,1.524,1.448a2.271,2.271,0,1,1-3.212,3.195q-1.61-1.6-3.2-3.209a2.6,2.6,0,0,1-.3-.468l-.234.01a4.354,4.354,0,0,1-.453.6,2.2,2.2,0,0,1-3.058.072c-.816-.748-1.6-1.534-2.351-2.351a2.216,2.216,0,0,1,.146-3.133c1.285-1.3,2.591-2.587,3.879-3.887a15.512,15.512,0,0,0,4.241-7.75,1.239,1.239,0,0,0-.074-.705,2.291,2.291,0,0,1,.756-2.824,2.239,2.239,0,0,1,2.869.221q4.327,4.294,8.62,8.622a2.212,2.212,0,0,1,.214,2.867,2.28,2.28,0,0,1-2.78.76,1.073,1.073,0,0,0-.567-.126A15.463,15.463,0,0,0,1460.12,374.4Zm4.587-3.788-6.5-6.5a17.307,17.307,0,0,1-3.549,6.775l3.274,3.286A17.357,17.357,0,0,1,1464.707,370.608Zm-8.1,4.784-3.149-3.236c-1.2,1.2-2.415,2.4-3.62,3.623a.737.737,0,0,0-.046,1.12q1.049,1.088,2.141,2.136a.7.7,0,0,0,1.041,0C1454.217,377.808,1455.441,376.564,1456.608,375.392Zm2.218-14.837a2.932,2.932,0,0,0-.624.537.691.691,0,0,0,.2.9q4.2,4.2,8.4,8.4a.761.761,0,1,0,1.051-1.075q-4.177-4.186-8.365-8.36A3.626,3.626,0,0,0,1458.826,360.555Zm-3.158,17.948c1.2,1.2,2.38,2.382,3.566,3.565.456.455.878.513,1.224.177.362-.352.3-.777-.179-1.262q-1.617-1.621-3.237-3.237c-.1-.1-.214-.188-.319-.279Zm3.2-1.128c1-.814,1-1.252-.016-2.009l-1.06.99Z" transform="translate(-1448.035 -358.176)" fill="#fff"/>
      <path id="Path_2218" data-name="Path 2218" d="M1629.523,367.525c-.164-.13-.455-.251-.535-.456a.92.92,0,0,1,.051-.783,19.416,19.416,0,0,1,1.659-1.676.658.658,0,0,1,.919.031.634.634,0,0,1,.169.9c-.569.652-1.212,1.241-1.836,1.844C1629.877,367.456,1629.735,367.459,1629.523,367.525Z" transform="translate(-1610.691 -362.949)" fill="#fff"/>
      <path id="Path_2219" data-name="Path 2219" d="M1598.428,351.159c0-.268-.019-.538,0-.8a.689.689,0,0,1,.685-.675.647.647,0,0,1,.761.575,10.607,10.607,0,0,1,0,1.85.648.648,0,0,1-.759.579.687.687,0,0,1-.688-.672C1598.408,351.731,1598.428,351.444,1598.428,351.159Z" transform="translate(-1583.261 -349.678)" fill="#fff"/>
      <path id="Path_2220" data-name="Path 2220" d="M1644.9,411.021c-.235,0-.47.012-.7,0a.747.747,0,0,1-.757-.769.731.731,0,0,1,.737-.734c.5-.02,1.006-.019,1.508,0a.749.749,0,0,1,.764.766.766.766,0,0,1-.795.739C1645.4,411.031,1645.152,411.021,1644.9,411.021Z" transform="translate(-1623.743 -403.469)" fill="#fff"/>
    </g>
    <g id="Group_12645" data-name="Group 12645" transform="translate(4786.398 -103.621)">
      <path id="Path_2224" data-name="Path 2224" d="M1523.757,542.08l1.055-1.036c.1.091.218.178.319.279q1.621,1.617,3.238,3.237c.483.484.541.91.179,1.262-.346.336-.767.279-1.224-.177C1526.137,544.462,1524.953,543.276,1523.757,542.08Z" transform="translate(-1517.645 -524.132)" fill="#f69d66"/>
      <path id="Path_2225" data-name="Path 2225" d="M1545.959,522.213l-1.075-1.019,1.06-.99C1546.963,520.961,1546.958,521.4,1545.959,522.213Z" transform="translate(-1536.643 -505.393)" fill="#f69d66"/>
      <g id="Group_12644" data-name="Group 12644">
        <path id="Path_2221" data-name="Path 2221" d="M1523.774,415.023a17.358,17.358,0,0,0-6.777,3.561l-3.274-3.286a17.306,17.306,0,0,0,3.549-6.775Z" transform="translate(-1508.623 -404.97)" fill="rgba(255,255,255,0.23)"/>
        <path id="Path_2223" data-name="Path 2223" d="M1548.632,373.276a3.624,3.624,0,0,1,.659.4q4.191,4.171,8.365,8.36a.761.761,0,1,1-1.05,1.075q-4.2-4.194-8.4-8.4a.69.69,0,0,1-.2-.9A2.932,2.932,0,0,1,1548.632,373.276Z" transform="translate(-1539.362 -373.276)" fill="rgba(255,255,255,0.23)"/>
        <g id="Group_12643" data-name="Group 12643" transform="translate(0 11.6)">
          <path id="Path_2222" data-name="Path 2222" d="M1470.181,491.588c-1.167,1.173-2.391,2.417-3.633,3.642a.7.7,0,0,1-1.041,0q-1.091-1.046-2.14-2.135a.737.737,0,0,1,.046-1.12c1.2-1.217,2.421-2.424,3.62-3.622Zm-2.278-.182c-.136-.177-.253-.471-.454-.552a.932.932,0,0,0-.783.052,8.7,8.7,0,0,0-1.246,1.233.663.663,0,0,0,.056.919.654.654,0,0,0,.948.123,15.084,15.084,0,0,0,1.284-1.27A1.747,1.747,0,0,0,1467.9,491.407Z" transform="translate(-1463.13 -488.352)" fill="rgba(255,255,255,0.23)"/>
          <path id="Path_2226" data-name="Path 2226" d="M1486.9,513.192a1.747,1.747,0,0,1-.2.506,15.092,15.092,0,0,1-1.284,1.27.654.654,0,0,1-.948-.123.663.663,0,0,1-.056-.919,8.7,8.7,0,0,1,1.246-1.233.932.932,0,0,1,.783-.052C1486.651,512.721,1486.767,513.015,1486.9,513.192Z" transform="translate(-1482.13 -510.137)" fill="rgba(255,255,255,0.23)"/>
        </g>
      </g>
    </g>
  </g>
</svg>
